<svg xmlns="http://www.w3.org/2000/svg" xmlns:xlink="http://www.w3.org/1999/xlink" width="733pt" height="737pt" viewBox="0.00 0.00 550.00 553.00">
<g id="graph0" class="graph" transform="scale(0.75 0.75) rotate(0) translate(4 549)">
<title>G</title>
<polygon fill="white" stroke="transparent" points="-4,4 -4,-549 546,-549 546,4 -4,4"/>
<!-- 134846106086912 -->
<g id="node1" class="node">
<title>134846106086912</title>
<polygon fill="none" stroke="black" points="23.5,-498.5 23.5,-544.5 233.5,-544.5 233.5,-498.5 23.5,-498.5"/>
<text text-anchor="middle" x="62" y="-529.3" font-family="Times,serif" font-size="14.00">User_Input</text>
<polyline fill="none" stroke="black" points="23.5,-521.5 100.5,-521.5 "/>
<text text-anchor="middle" x="62" y="-506.3" font-family="Times,serif" font-size="14.00">InputLayer</text>
<polyline fill="none" stroke="black" points="100.5,-498.5 100.5,-544.5 "/>
<text text-anchor="middle" x="128" y="-529.3" font-family="Times,serif" font-size="14.00">input:</text>
<polyline fill="none" stroke="black" points="100.5,-521.5 155.5,-521.5 "/>
<text text-anchor="middle" x="128" y="-506.3" font-family="Times,serif" font-size="14.00">output:</text>
<polyline fill="none" stroke="black" points="155.5,-498.5 155.5,-544.5 "/>
<text text-anchor="middle" x="194.5" y="-529.3" font-family="Times,serif" font-size="14.00">[(None, 1)]</text>
<polyline fill="none" stroke="black" points="155.5,-521.5 233.5,-521.5 "/>
<text text-anchor="middle" x="194.5" y="-506.3" font-family="Times,serif" font-size="14.00">[(None, 1)]</text>
</g>
<!-- 134843883520448 -->
<g id="node3" class="node">
<title>134843883520448</title>
<polygon fill="none" stroke="black" points="0,-415.5 0,-461.5 257,-461.5 257,-415.5 0,-415.5"/>
<text text-anchor="middle" x="56" y="-446.3" font-family="Times,serif" font-size="14.00">User_Embedding</text>
<polyline fill="none" stroke="black" points="0,-438.5 112,-438.5 "/>
<text text-anchor="middle" x="56" y="-423.3" font-family="Times,serif" font-size="14.00">Embedding</text>
<polyline fill="none" stroke="black" points="112,-415.5 112,-461.5 "/>
<text text-anchor="middle" x="139.5" y="-446.3" font-family="Times,serif" font-size="14.00">input:</text>
<polyline fill="none" stroke="black" points="112,-438.5 167,-438.5 "/>
<text text-anchor="middle" x="139.5" y="-423.3" font-family="Times,serif" font-size="14.00">output:</text>
<polyline fill="none" stroke="black" points="167,-415.5 167,-461.5 "/>
<text text-anchor="middle" x="212" y="-446.3" font-family="Times,serif" font-size="14.00">(None, 1)</text>
<polyline fill="none" stroke="black" points="167,-438.5 257,-438.5 "/>
<text text-anchor="middle" x="212" y="-423.3" font-family="Times,serif" font-size="14.00">(None, 1, 50)</text>
</g>
<!-- 134846106086912&#45;&gt;134843883520448 -->
<g id="edge1" class="edge">
<title>134846106086912-&gt;134843883520448</title>
<path fill="none" stroke="black" d="M128.5,-498.37C128.5,-490.15 128.5,-480.66 128.5,-471.73"/>
<polygon fill="black" stroke="black" points="132,-471.61 128.5,-461.61 125,-471.61 132,-471.61"/>
</g>
<!-- 134843883523472 -->
<g id="node2" class="node">
<title>134843883523472</title>
<polygon fill="none" stroke="black" points="298.5,-498.5 298.5,-544.5 518.5,-544.5 518.5,-498.5 298.5,-498.5"/>
<text text-anchor="middle" x="342" y="-529.3" font-family="Times,serif" font-size="14.00">Movie_input</text>
<polyline fill="none" stroke="black" points="298.5,-521.5 385.5,-521.5 "/>
<text text-anchor="middle" x="342" y="-506.3" font-family="Times,serif" font-size="14.00">InputLayer</text>
<polyline fill="none" stroke="black" points="385.5,-498.5 385.5,-544.5 "/>
<text text-anchor="middle" x="413" y="-529.3" font-family="Times,serif" font-size="14.00">input:</text>
<polyline fill="none" stroke="black" points="385.5,-521.5 440.5,-521.5 "/>
<text text-anchor="middle" x="413" y="-506.3" font-family="Times,serif" font-size="14.00">output:</text>
<polyline fill="none" stroke="black" points="440.5,-498.5 440.5,-544.5 "/>
<text text-anchor="middle" x="479.5" y="-529.3" font-family="Times,serif" font-size="14.00">[(None, 1)]</text>
<polyline fill="none" stroke="black" points="440.5,-521.5 518.5,-521.5 "/>
<text text-anchor="middle" x="479.5" y="-506.3" font-family="Times,serif" font-size="14.00">[(None, 1)]</text>
</g>
<!-- 134843883527312 -->
<g id="node4" class="node">
<title>134843883527312</title>
<polygon fill="none" stroke="black" points="275,-415.5 275,-461.5 542,-461.5 542,-415.5 275,-415.5"/>
<text text-anchor="middle" x="336" y="-446.3" font-family="Times,serif" font-size="14.00">Movie_Embedding</text>
<polyline fill="none" stroke="black" points="275,-438.5 397,-438.5 "/>
<text text-anchor="middle" x="336" y="-423.3" font-family="Times,serif" font-size="14.00">Embedding</text>
<polyline fill="none" stroke="black" points="397,-415.5 397,-461.5 "/>
<text text-anchor="middle" x="424.5" y="-446.3" font-family="Times,serif" font-size="14.00">input:</text>
<polyline fill="none" stroke="black" points="397,-438.5 452,-438.5 "/>
<text text-anchor="middle" x="424.5" y="-423.3" font-family="Times,serif" font-size="14.00">output:</text>
<polyline fill="none" stroke="black" points="452,-415.5 452,-461.5 "/>
<text text-anchor="middle" x="497" y="-446.3" font-family="Times,serif" font-size="14.00">(None, 1)</text>
<polyline fill="none" stroke="black" points="452,-438.5 542,-438.5 "/>
<text text-anchor="middle" x="497" y="-423.3" font-family="Times,serif" font-size="14.00">(None, 1, 50)</text>
</g>
<!-- 134843883523472&#45;&gt;134843883527312 -->
<g id="edge2" class="edge">
<title>134843883523472-&gt;134843883527312</title>
<path fill="none" stroke="black" d="M408.5,-498.37C408.5,-490.15 408.5,-480.66 408.5,-471.73"/>
<polygon fill="black" stroke="black" points="412,-471.61 408.5,-461.61 405,-471.61 412,-471.61"/>
</g>
<!-- 134843882807664 -->
<g id="node5" class="node">
<title>134843882807664</title>
<polygon fill="none" stroke="black" points="27,-332.5 27,-378.5 256,-378.5 256,-332.5 27,-332.5"/>
<text text-anchor="middle" x="69" y="-363.3" font-family="Times,serif" font-size="14.00">User_Vector</text>
<polyline fill="none" stroke="black" points="27,-355.5 111,-355.5 "/>
<text text-anchor="middle" x="69" y="-340.3" font-family="Times,serif" font-size="14.00">Flatten</text>
<polyline fill="none" stroke="black" points="111,-332.5 111,-378.5 "/>
<text text-anchor="middle" x="138.5" y="-363.3" font-family="Times,serif" font-size="14.00">input:</text>
<polyline fill="none" stroke="black" points="111,-355.5 166,-355.5 "/>
<text text-anchor="middle" x="138.5" y="-340.3" font-family="Times,serif" font-size="14.00">output:</text>
<polyline fill="none" stroke="black" points="166,-332.5 166,-378.5 "/>
<text text-anchor="middle" x="211" y="-363.3" font-family="Times,serif" font-size="14.00">(None, 1, 50)</text>
<polyline fill="none" stroke="black" points="166,-355.5 256,-355.5 "/>
<text text-anchor="middle" x="211" y="-340.3" font-family="Times,serif" font-size="14.00">(None, 50)</text>
</g>
<!-- 134843883520448&#45;&gt;134843882807664 -->
<g id="edge3" class="edge">
<title>134843883520448-&gt;134843882807664</title>
<path fill="none" stroke="black" d="M132.05,-415.37C133.37,-407.15 134.89,-397.66 136.33,-388.73"/>
<polygon fill="black" stroke="black" points="139.82,-389.04 137.95,-378.61 132.91,-387.93 139.82,-389.04"/>
</g>
<!-- 134843883528224 -->
<g id="node6" class="node">
<title>134843883528224</title>
<polygon fill="none" stroke="black" points="281.5,-332.5 281.5,-378.5 521.5,-378.5 521.5,-332.5 281.5,-332.5"/>
<text text-anchor="middle" x="329" y="-363.3" font-family="Times,serif" font-size="14.00">Movie_Vector</text>
<polyline fill="none" stroke="black" points="281.5,-355.5 376.5,-355.5 "/>
<text text-anchor="middle" x="329" y="-340.3" font-family="Times,serif" font-size="14.00">Flatten</text>
<polyline fill="none" stroke="black" points="376.5,-332.5 376.5,-378.5 "/>
<text text-anchor="middle" x="404" y="-363.3" font-family="Times,serif" font-size="14.00">input:</text>
<polyline fill="none" stroke="black" points="376.5,-355.5 431.5,-355.5 "/>
<text text-anchor="middle" x="404" y="-340.3" font-family="Times,serif" font-size="14.00">output:</text>
<polyline fill="none" stroke="black" points="431.5,-332.5 431.5,-378.5 "/>
<text text-anchor="middle" x="476.5" y="-363.3" font-family="Times,serif" font-size="14.00">(None, 1, 50)</text>
<polyline fill="none" stroke="black" points="431.5,-355.5 521.5,-355.5 "/>
<text text-anchor="middle" x="476.5" y="-340.3" font-family="Times,serif" font-size="14.00">(None, 50)</text>
</g>
<!-- 134843883527312&#45;&gt;134843883528224 -->
<g id="edge4" class="edge">
<title>134843883527312-&gt;134843883528224</title>
<path fill="none" stroke="black" d="M406.59,-415.37C405.88,-407.15 405.06,-397.66 404.28,-388.73"/>
<polygon fill="black" stroke="black" points="407.76,-388.27 403.41,-378.61 400.78,-388.87 407.76,-388.27"/>
</g>
<!-- 134843883530048 -->
<g id="node7" class="node">
<title>134843883530048</title>
<polygon fill="none" stroke="black" points="116.5,-249.5 116.5,-295.5 418.5,-295.5 418.5,-249.5 116.5,-249.5"/>
<text text-anchor="middle" x="164" y="-280.3" font-family="Times,serif" font-size="14.00">Concatenation</text>
<polyline fill="none" stroke="black" points="116.5,-272.5 211.5,-272.5 "/>
<text text-anchor="middle" x="164" y="-257.3" font-family="Times,serif" font-size="14.00">Concatenate</text>
<polyline fill="none" stroke="black" points="211.5,-249.5 211.5,-295.5 "/>
<text text-anchor="middle" x="239" y="-280.3" font-family="Times,serif" font-size="14.00">input:</text>
<polyline fill="none" stroke="black" points="211.5,-272.5 266.5,-272.5 "/>
<text text-anchor="middle" x="239" y="-257.3" font-family="Times,serif" font-size="14.00">output:</text>
<polyline fill="none" stroke="black" points="266.5,-249.5 266.5,-295.5 "/>
<text text-anchor="middle" x="342.5" y="-280.3" font-family="Times,serif" font-size="14.00">[(None, 50), (None, 50)]</text>
<polyline fill="none" stroke="black" points="266.5,-272.5 418.5,-272.5 "/>
<text text-anchor="middle" x="342.5" y="-257.3" font-family="Times,serif" font-size="14.00">(None, 100)</text>
</g>
<!-- 134843882807664&#45;&gt;134843883530048 -->
<g id="edge5" class="edge">
<title>134843882807664-&gt;134843883530048</title>
<path fill="none" stroke="black" d="M175.93,-332.37C190.93,-322.72 208.67,-311.32 224.53,-301.13"/>
<polygon fill="black" stroke="black" points="226.59,-303.96 233.11,-295.61 222.81,-298.07 226.59,-303.96"/>
</g>
<!-- 134843883528224&#45;&gt;134843883530048 -->
<g id="edge6" class="edge">
<title>134843883528224-&gt;134843883530048</title>
<path fill="none" stroke="black" d="M364.88,-332.37C348.78,-322.63 329.71,-311.11 312.73,-300.84"/>
<polygon fill="black" stroke="black" points="314.44,-297.78 304.07,-295.61 310.82,-303.78 314.44,-297.78"/>
</g>
<!-- 134843883530960 -->
<g id="node8" class="node">
<title>134843883530960</title>
<polygon fill="none" stroke="black" points="173.5,-166.5 173.5,-212.5 361.5,-212.5 361.5,-166.5 173.5,-166.5"/>
<text text-anchor="middle" x="198.5" y="-197.3" font-family="Times,serif" font-size="14.00">dense</text>
<polyline fill="none" stroke="black" points="173.5,-189.5 223.5,-189.5 "/>
<text text-anchor="middle" x="198.5" y="-174.3" font-family="Times,serif" font-size="14.00">Dense</text>
<polyline fill="none" stroke="black" points="223.5,-166.5 223.5,-212.5 "/>
<text text-anchor="middle" x="251" y="-197.3" font-family="Times,serif" font-size="14.00">input:</text>
<polyline fill="none" stroke="black" points="223.5,-189.5 278.5,-189.5 "/>
<text text-anchor="middle" x="251" y="-174.3" font-family="Times,serif" font-size="14.00">output:</text>
<polyline fill="none" stroke="black" points="278.5,-166.5 278.5,-212.5 "/>
<text text-anchor="middle" x="320" y="-197.3" font-family="Times,serif" font-size="14.00">(None, 100)</text>
<polyline fill="none" stroke="black" points="278.5,-189.5 361.5,-189.5 "/>
<text text-anchor="middle" x="320" y="-174.3" font-family="Times,serif" font-size="14.00">(None, 100)</text>
</g>
<!-- 134843883530048&#45;&gt;134843883530960 -->
<g id="edge7" class="edge">
<title>134843883530048-&gt;134843883530960</title>
<path fill="none" stroke="black" d="M267.5,-249.37C267.5,-241.15 267.5,-231.66 267.5,-222.73"/>
<polygon fill="black" stroke="black" points="271,-222.61 267.5,-212.61 264,-222.61 271,-222.61"/>
</g>
<!-- 134843883525104 -->
<g id="node9" class="node">
<title>134843883525104</title>
<polygon fill="none" stroke="black" points="167.5,-83.5 167.5,-129.5 367.5,-129.5 367.5,-83.5 167.5,-83.5"/>
<text text-anchor="middle" x="198.5" y="-114.3" font-family="Times,serif" font-size="14.00">dropout</text>
<polyline fill="none" stroke="black" points="167.5,-106.5 229.5,-106.5 "/>
<text text-anchor="middle" x="198.5" y="-91.3" font-family="Times,serif" font-size="14.00">Dropout</text>
<polyline fill="none" stroke="black" points="229.5,-83.5 229.5,-129.5 "/>
<text text-anchor="middle" x="257" y="-114.3" font-family="Times,serif" font-size="14.00">input:</text>
<polyline fill="none" stroke="black" points="229.5,-106.5 284.5,-106.5 "/>
<text text-anchor="middle" x="257" y="-91.3" font-family="Times,serif" font-size="14.00">output:</text>
<polyline fill="none" stroke="black" points="284.5,-83.5 284.5,-129.5 "/>
<text text-anchor="middle" x="326" y="-114.3" font-family="Times,serif" font-size="14.00">(None, 100)</text>
<polyline fill="none" stroke="black" points="284.5,-106.5 367.5,-106.5 "/>
<text text-anchor="middle" x="326" y="-91.3" font-family="Times,serif" font-size="14.00">(None, 100)</text>
</g>
<!-- 134843883530960&#45;&gt;134843883525104 -->
<g id="edge8" class="edge">
<title>134843883530960-&gt;134843883525104</title>
<path fill="none" stroke="black" d="M267.5,-166.37C267.5,-158.15 267.5,-148.66 267.5,-139.73"/>
<polygon fill="black" stroke="black" points="271,-139.61 267.5,-129.61 264,-139.61 271,-139.61"/>
</g>
<!-- 134843883528560 -->
<g id="node10" class="node">
<title>134843883528560</title>
<polygon fill="none" stroke="black" points="168,-0.5 168,-46.5 367,-46.5 367,-0.5 168,-0.5"/>
<text text-anchor="middle" x="198.5" y="-31.3" font-family="Times,serif" font-size="14.00">dense_1</text>
<polyline fill="none" stroke="black" points="168,-23.5 229,-23.5 "/>
<text text-anchor="middle" x="198.5" y="-8.3" font-family="Times,serif" font-size="14.00">Dense</text>
<polyline fill="none" stroke="black" points="229,-0.5 229,-46.5 "/>
<text text-anchor="middle" x="256.5" y="-31.3" font-family="Times,serif" font-size="14.00">input:</text>
<polyline fill="none" stroke="black" points="229,-23.5 284,-23.5 "/>
<text text-anchor="middle" x="256.5" y="-8.3" font-family="Times,serif" font-size="14.00">output:</text>
<polyline fill="none" stroke="black" points="284,-0.5 284,-46.5 "/>
<text text-anchor="middle" x="325.5" y="-31.3" font-family="Times,serif" font-size="14.00">(None, 100)</text>
<polyline fill="none" stroke="black" points="284,-23.5 367,-23.5 "/>
<text text-anchor="middle" x="325.5" y="-8.3" font-family="Times,serif" font-size="14.00">(None, 1)</text>
</g>
<!-- 134843883525104&#45;&gt;134843883528560 -->
<g id="edge9" class="edge">
<title>134843883525104-&gt;134843883528560</title>
<path fill="none" stroke="black" d="M267.5,-83.37C267.5,-75.15 267.5,-65.66 267.5,-56.73"/>
<polygon fill="black" stroke="black" points="271,-56.61 267.5,-46.61 264,-56.61 271,-56.61"/>
</g>
</g>
</svg>